Coordinates
version=1
nRows=13
nColumns=40
inDegrees=yes

Units are S.I. units (second, meters, Newtons, ...)
If the header above contains a line with 'inDegrees', this indicates whether rotational values are in degrees (yes) or radians (no).

endheader
time	pelvis_tilt	pelvis_list	pelvis_rotation	pelvis_tx	pelvis_ty	pelvis_tz	hip_flexion_r	hip_adduction_r	hip_rotation_r	knee_angle_r	knee_angle_r_beta	ankle_angle_r	subtalar_angle_r	mtp_angle_r	hip_flexion_l	hip_adduction_l	hip_rotation_l	knee_angle_l	knee_angle_l_beta	ankle_angle_l	subtalar_angle_l	mtp_angle_l	lumbar_extension	lumbar_bending	lumbar_rotation	arm_flex_r	arm_add_r	arm_rot_r	elbow_flex_r	pro_sup_r	wrist_flex_r	wrist_dev_r	arm_flex_l	arm_add_l	arm_rot_l	elbow_flex_l	pro_sup_l	wrist_flex_l	wrist_dev_l
      3.92500000	      8.62652097	     -7.06001764	     -1.71763893	     -0.40046569	      1.20547816	      0.01994287	     50.21742290	      0.78767578	     -1.96390800	     96.78719313	      1.68925519	      0.16442659	    -21.38380500	      0.00000000	     37.71464779	     -8.94310703	     12.00938371	     50.54953608	      0.88225584	      5.87689125	    -30.94871810	      0.00000000	    -70.70240113	      3.94899195	     11.05116448	     82.32758538	     -8.87211555	     10.72637345	     41.88477097	      8.15732269	      0.00000000	      0.00000000	     89.88413625	     -0.40892688	     30.77754657	     22.93953821	     82.22324834	      0.00000000	      0.00000000
      3.93333333	      8.86309038	     -7.07636908	     -2.12334961	     -0.40003000	      1.20634115	      0.02052889	     51.65749150	      0.79620750	     -1.77948281	     98.54365004	      1.71991115	      0.27436576	    -20.83597484	      0.00000000	     35.46634198	     -9.56898157	     11.00260589	     48.10431238	      0.83957864	      4.74124999	    -30.97360828	      0.00000000	    -70.97998318	      3.64117589	     11.25773789	     82.30203976	     -8.91518885	     10.81854566	     42.01138316	      8.16192015	      0.00000000	      0.00000000	     89.88225005	     -0.39111863	     30.68205414	     22.85401641	     82.17078830	      0.00000000	      0.00000000
      3.94166667	      8.79446210	     -7.50589791	     -1.86142995	     -0.39950876	      1.20611292	      0.02045518	     53.22220762	      0.87328941	     -2.15959026	    100.07061574	      1.74656173	      0.80925635	    -20.95588161	      0.00000000	     34.01761209	    -10.15570694	     10.83712733	     46.06302344	      0.80395142	      3.98416108	    -30.64036933	      0.00000000	    -70.91571100	      4.16197839	     11.61872905	     82.25475518	     -8.89417056	     10.86567702	     42.00000642	      8.15076325	      0.00000000	      0.00000000	     89.87738436	     -0.35065124	     30.72059994	     22.56587828	     82.19052450	      0.00000000	      0.00000000
      3.95000000	      8.74603023	     -7.86724022	     -1.73174532	     -0.39901108	      1.20595456	      0.02065704	     54.79242387	      0.92003318	     -2.51227727	    101.52764701	      1.77199172	      1.39145328	    -20.97944262	      0.00000000	     32.50344493	    -10.71491240	     10.64667415	     44.21995295	      0.77178377	      3.11618906	    -30.26120480	      0.00000000	    -70.87502364	      4.52139286	     11.97760930	     82.18738595	     -8.92140308	     10.91120447	     42.05553656	      8.16842723	      0.00000000	      0.00000000	     89.87461202	     -0.31550699	     30.78234822	     22.30752075	     82.18005799	      0.00000000	      0.00000000
      3.95833333	      8.64178190	     -8.23605031	     -1.67062634	     -0.39869847	      1.20591036	      0.02080836	     56.48466054	      0.97831953	     -2.83657488	    102.87679696	      1.79553883	      2.01140002	    -20.97643737	      0.00000000	     31.11949464	    -11.29780409	     10.40939584	     42.52750456	      0.74224498	      2.21731092	    -29.88651437	      0.00000000	    -70.81765261	      4.84170840	     12.35472468	     82.15775682	     -8.92673296	     10.97267591	     42.14242794	      8.24185776	      0.00000000	      0.00000000	     89.87128253	     -0.27655529	     30.81028283	     22.10800224	     82.10817694	      0.00000000	      0.00000000
      3.96666667	      8.60708031	     -8.51573921	     -1.59343779	     -0.39811222	      1.20570734	      0.02104919	     57.92917850	      0.99759898	     -3.06332534	    104.07153916	      1.81639102	      3.07146464	    -20.89217453	      0.00000000	     29.80079449	    -11.77191705	     10.15901128	     41.16069273	      0.71838961	      1.24583851	    -29.52447400	      0.00000000	    -70.77292654	      5.12185135	     12.66499541	     82.06460290	     -8.96944821	     11.04952096	     42.24250828	      8.25934827	      0.00000000	      0.00000000	     89.86944910	     -0.16427501	     30.80226623	     21.74171436	     82.09332758	      0.00000000	      0.00000000
      3.97500000	      8.56129777	     -8.77066028	     -1.50149182	     -0.39769364	      1.20566108	      0.02124678	     59.38282415	      0.96134132	     -3.34253452	    105.11380318	      1.83458195	      4.07482608	    -20.77513251	      0.00000000	     28.60569442	    -12.20973479	      9.89642067	     40.02110862	      0.69850012	      0.34489879	    -29.22784339	      0.00000000	    -70.74978645	      5.39588240	     12.91910578	     82.00207508	     -9.00363910	     11.12863977	     42.35619853	      8.29859232	      0.00000000	      0.00000000	     89.86463761	     -0.15078409	     30.79841641	     21.57831803	     82.05413769	      0.00000000	      0.00000000
      3.98333333	      8.53832348	     -8.96298646	     -1.43277239	     -0.39728156	      1.20561908	      0.02143701	     60.75131937	      0.92688106	     -3.52029303	    105.98645187	      1.84981255	      5.12280824	    -20.50410422	      0.00000000	     27.51613346	    -12.55788182	      9.63550442	     39.17339458	      0.68370471	     -0.57519519	    -29.00616665	      0.00000000	    -70.74059898	      5.61688057	     13.13472848	     81.93434431	     -9.06442410	     11.23822991	     42.48964533	      8.32836324	      0.00000000	      0.00000000	     89.86143559	     -0.13070499	     30.85743097	     21.41570403	     82.02515028	      0.00000000	      0.00000000
      3.99166667	      8.41443576	     -9.13084579	     -1.39284803	     -0.39711424	      1.20562199	      0.02177652	     62.14128280	      0.88986527	     -3.70618881	    106.61031339	      1.86070099	      6.04644234	    -20.39019632	      0.00000000	     26.41233627	    -12.69095936	     10.02734515	     38.31413486	      0.66870780	     -1.14903679	    -29.14299614	      0.00000000	    -70.66151853	      5.80213896	     13.30923908	     81.90462601	     -9.09700295	     11.33391169	     42.58127622	      8.28547633	      0.00000000	      0.00000000	     89.85861249	     -0.17211259	     30.90121348	     21.32549191	     82.05959382	      0.00000000	      0.00000000
      4.00000000	      8.32864969	     -9.30321006	     -1.26198168	     -0.39704255	      1.20573933	      0.02187318	     63.49462235	      0.89866335	     -3.89616088	    107.09985135	      1.86924503	      6.82122735	    -20.30699598	      0.00000000	     25.75741561	    -12.96145604	      9.77254257	     37.97999660	      0.66287599	     -2.02984879	    -29.15987453	      0.00000000	    -70.63205951	      6.07593770	     13.45049353	     81.90302545	     -9.09190620	     11.42532056	     42.64492934	      8.28251708	      0.00000000	      0.00000000	     89.85491369	     -0.22813856	     30.90091342	     21.31220055	     82.04573550	      0.00000000	      0.00000000
      4.00833333	      8.03525313	     -9.04372072	     -1.13883075	     -0.39712056	      1.20533149	      0.02135952	     64.96136962	      0.34855655	     -3.70121629	    107.43995766	      1.87518101	      8.23428025	    -18.99587268	      0.00000000	     25.44445622	    -12.56522979	      9.81876397	     37.94637498	      0.66228918	     -3.64144185	    -30.67251623	      0.00000000	    -70.34660853	      6.22782634	     13.20599049	     81.91278109	     -9.24938867	     11.83905811	     42.79919084	      8.15373589	      0.00000000	      0.00000000	     89.85380977	     -0.25761062	     31.10188871	     21.22392385	     81.89374933	      0.00000000	      0.00000000
      4.01666667	      8.02816417	     -9.12682535	     -1.09266917	     -0.39701470	      1.20565283	      0.02159105	     65.95888110	      0.31315709	     -3.84969814	    107.45662846	      1.87547197	      8.82782619	    -19.04024945	      0.00000000	     24.93122042	    -12.73542376	      9.61677711	     38.18131198	      0.66638961	     -4.17836643	    -30.59600712	      0.00000000	    -70.39282117	      6.34889367	     13.28660643	     81.89689113	     -9.23856935	     11.85461132	     42.88390226	      8.13716733	      0.00000000	      0.00000000	     89.85069422	     -0.30523487	     31.08541067	     21.23509886	     81.88107066	      0.00000000	      0.00000000
      4.02500000	      7.73561531	     -9.19845687	     -1.19902160	     -0.39724265	      1.20556351	      0.02191305	     67.16239628	      0.42332736	     -3.92283909	    107.25712716	      1.87199002	      9.63342451	    -18.60106302	      0.00000000	     24.88958498	    -12.87885189	      9.50179210	     38.76532263	      0.67658252	     -4.76193120	    -30.82895605	      0.00000000	    -70.17454882	      6.39023271	     13.42066091	     81.90230985	     -9.26118776	     11.91840980	     43.00659752	      8.10621106	      0.00000000	      0.00000000	     89.84844271	     -0.33383026	     31.12443928	     21.19209027	     81.84590835	      0.00000000	      0.00000000
